<svg width="90" height="82" viewBox="0 0 90 82" fill="none" xmlns="http://www.w3.org/2000/svg">
<path d="M72.982 25.688C72.982 24.039 71.648 22.704 70 22.704H71.166C69.52 22.704 68.184 24.039 68.182 25.688V26.211C64.742 26.53 58.188 25.251 52.608 13.227C52.299 12.351 49.879 6.001 44.477 6C44.338 6 41.071 6.035 39.352 8.971C37.413 12.284 38.424 17.725 42.357 25.16C41.669 25.341 40.689 25.502 39.383 25.502H7.322C3.285 25.502 0 28.788 0 32.826C0 34.446 0.533 35.937 1.425 37.151C1.425 37.151 3.702 40.102 6.176 40.102C7.603 40.102 19.289 40.127 25.877 40.142C23.372 44.041 24.439 48.683 24.917 50.248C25.254 51.923 25.399 53.519 25.391 55.064C25.87 57.46 27.013 60.433 29.625 63.111C30.017 63.654 30.227 64.607 30.445 65.615C31.035 68.332 31.927 72.435 38.041 73.585L38.186 73.606C38.684 73.651 50.499 74.674 57.303 72.173C59.848 71.236 61.303 70.396 62.473 69.721C64.051 68.809 65.094 68.209 68.182 67.936V68.456C68.182 70.102 69.52 71.438 71.166 71.438H70C71.646 71.438 72.984 70.102 72.984 68.456C72.984 66.81 72.982 27.337 72.982 25.688ZM68.182 64.926C64.436 65.225 62.997 65.951 60.971 67.123C60.9657 67.1261 60.9603 67.1292 60.955 67.1323C59.8339 67.78 58.5601 68.516 56.268 69.357C50.35 71.533 39.506 70.706 38.524 70.624C34.4327 69.8301 33.9442 67.5827 33.3783 64.9792L33.378 64.978L33.3771 64.9737C33.0883 63.647 32.7891 62.2718 31.939 61.197L31.83 61.074C27.406 56.592 28.088 51.068 28.121 50.837C28.163 50.515 28.1 50.205 27.96 49.94C27.944 49.868 27.93 49.796 27.902 49.726L27.9006 49.7221C27.8339 49.54 25.705 43.6427 29.735 40.239C29.766 40.214 29.791 40.18 29.819 40.153C30.166 40.153 30.357 40.153 30.357 40.153V40.093H31.001C31.829 40.093 32.501 39.421 32.501 38.593C32.501 37.765 31.829 37.093 31.001 37.093H23.418C23.28 37.093 23.149 37.117 23.023 37.153L7.322 37.152C4.939 37.153 2.999 35.212 2.999 32.827C2.999 30.443 4.939 28.504 7.322 28.503H39.384C43.299 28.504 45.145 27.278 45.344 27.14L46.448 26.359L45.785 25.181C40.485 15.735 41.104 11.921 41.942 10.488C42.788 9.043 44.461 9.003 44.477 9.002C47.955 9.003 49.772 14.209 49.79 14.261L49.853 14.421C53.3 21.88 57.623 26.591 62.698 28.422C64.786 29.176 66.669 29.307 68.181 29.202L68.182 64.926Z" fill="#218380"/>
<path d="M60.971 67.123C62.997 65.951 64.436 65.225 68.182 64.926L68.181 29.202C66.669 29.307 64.786 29.176 62.698 28.422C57.623 26.591 53.3 21.88 49.853 14.421L49.79 14.261C49.772 14.209 47.955 9.003 44.477 9.002C44.461 9.003 42.788 9.043 41.942 10.488C41.104 11.921 40.485 15.735 45.785 25.181L46.448 26.359L45.344 27.14C45.145 27.278 43.299 28.504 39.384 28.503H7.322C4.939 28.504 2.999 30.443 2.999 32.827C2.999 35.212 4.939 37.153 7.322 37.152L23.023 37.153C23.149 37.117 23.28 37.093 23.418 37.093H31.001C31.829 37.093 32.501 37.765 32.501 38.593C32.501 39.421 31.829 40.093 31.001 40.093H30.357V40.153H29.819C29.791 40.18 29.766 40.214 29.735 40.239C25.7104 43.6381 27.8285 49.5248 27.9006 49.7221L27.902 49.726C27.93 49.796 27.944 49.868 27.96 49.94C28.1 50.205 28.163 50.515 28.121 50.837C28.088 51.068 27.406 56.592 31.83 61.074L31.939 61.197C32.7891 62.2718 33.0883 63.647 33.3771 64.9737L33.378 64.978L33.3783 64.9792C33.9442 67.5827 34.4327 69.8301 38.524 70.624C39.506 70.706 50.35 71.533 56.268 69.357C58.5601 68.516 59.8339 67.78 60.955 67.1323L60.971 67.123Z" fill="white"/>
<path d="M73 26H85C87.7614 26 90 28.2386 90 31V63C90 65.7614 87.7614 68 85 68H73V26Z" fill="white"/>
<circle cx="82.5" cy="60.5" r="4.5" fill="#218380"/>
</svg>
